<svg version="1.2" xmlns="http://www.w3.org/2000/svg" viewBox="0 0 195 193" width="195" height="193">
	<style>
		tspan { white-space:pre } 
		.s0 { fill: #000000 } 
	</style>
	<path class="s0" d="m186.8 132.93c-1.5-2.18-3.46-4-5.74-5.34-2.27-1.34-4.82-2.16-7.45-2.41-2.63-0.25-5.28 0.08-7.77 0.97-2.49 0.89-4.76 2.31-6.64 4.16l-31.98-24.32q1.17-1.87 2.02-3.9 0.86-2.02 1.39-4.16 0.53-2.13 0.72-4.33 0.18-2.19 0.02-4.38l17.38-2.9q0.55 1.34 1.42 2.51 0.87 1.17 2 2.09 1.13 0.91 2.45 1.52 1.33 0.61 2.76 0.88 0.26 0.04 0.52 0.08 0.26 0.04 0.52 0.06 0.27 0.03 0.53 0.04 0.26 0.01 0.53 0.02c4.5-0.01 8.59-2.61 10.49-6.69 1.91-4.07 1.29-8.89-1.59-12.34-2.88-3.46-7.5-4.94-11.86-3.8-4.35 1.15-7.65 4.7-8.46 9.13q-0.03 0.17-0.06 0.35-0.03 0.17-0.05 0.34-0.02 0.18-0.03 0.36-0.02 0.17-0.03 0.35l-17.38 2.9q-0.58-2.18-1.5-4.23-0.92-2.06-2.16-3.95-1.24-1.88-2.76-3.54-1.52-1.66-3.29-3.06l17.31-26.78q0.89 0.41 1.82 0.72 0.93 0.31 1.89 0.51 0.96 0.21 1.93 0.32 0.98 0.1 1.96 0.1c4.51-0.01 8.86-1.7 12.19-4.75 3.33-3.06 5.39-7.24 5.8-11.74 0.4-4.49-0.89-8.98-3.62-12.57-2.74-3.6-6.71-6.04-11.16-6.85-3.9-0.72-7.93-0.13-11.46 1.66-3.54 1.8-6.39 4.71-8.11 8.28-1.72 3.57-2.22 7.61-1.42 11.5 0.8 3.88 2.85 7.4 5.84 10.01l-17.31 26.78q-1.7-0.89-3.51-1.54-1.8-0.64-3.68-1.03-1.88-0.4-3.8-0.53-1.91-0.13-3.83 0l-2.9-17.78c2.42-0.85 4.49-2.47 5.89-4.61 1.4-2.15 2.05-4.69 1.85-7.25-0.2-2.55-1.23-4.97-2.95-6.87-1.71-1.9-4.01-3.18-6.53-3.64-3.03-0.55-6.15 0.12-8.68 1.87-2.54 1.74-4.27 4.42-4.83 7.45-0.55 3.02 0.11 6.15 1.86 8.68 1.75 2.53 4.43 4.27 7.45 4.82q0.39 0.08 0.8 0.13l2.95 18.04q-1.66 0.44-3.25 1.07-1.58 0.63-3.08 1.45-1.5 0.82-2.89 1.82-1.39 0.99-2.65 2.15l-25.88-23.3c5.32-7.91 3.61-18.59-3.9-24.45-7.52-5.87-18.28-4.93-24.67 2.15-6.39 7.07-6.22 17.88 0.38 24.76 6.61 6.87 17.4 7.47 24.73 1.38l25.88 23.3q-1.78 2.38-3.02 5.08-1.23 2.71-1.87 5.61-0.63 2.9-0.64 5.87-0.01 2.98 0.61 5.88l-37.47 9.53c-2.44-5.91-7.81-10.09-14.13-11-6.32-0.92-12.66 1.57-16.68 6.53-4.01 4.97-5.11 11.68-2.89 17.67 2.22 5.99 7.43 10.37 13.71 11.52q0.41 0.07 0.82 0.13 0.41 0.05 0.83 0.09 0.41 0.04 0.82 0.06 0.42 0.02 0.83 0.02c2.54-0.01 5.05-0.54 7.36-1.58 2.32-1.04 4.39-2.55 6.08-4.43 1.69-1.89 2.97-4.11 3.75-6.52 0.78-2.42 1.04-4.97 0.77-7.49l37.76-9.6q0.48 1.15 1.06 2.25 0.57 1.09 1.25 2.14 0.67 1.04 1.43 2.02 0.77 0.98 1.61 1.89l-8.92 10.05c-5.18-2.86-11.69-1.36-15.1 3.47-3.42 4.84-2.66 11.47 1.76 15.4 4.43 3.94 11.1 3.92 15.51-0.03 4.4-3.96 5.13-10.59 1.69-15.41l8.92-10.05q1.01 0.75 2.08 1.39 1.07 0.65 2.2 1.2 1.12 0.55 2.3 1 1.17 0.44 2.37 0.78l-5.9 32.19c-9.5-0.25-17.57 6.89-18.5 16.34-0.92 9.46 5.61 18.03 14.98 19.62 9.37 1.6 18.38-4.3 20.64-13.53 2.27-9.23-2.98-18.64-12.03-21.56l5.89-32.12q1.25 0.12 2.48 0.12 2.89-0.01 5.72-0.61 2.83-0.6 5.48-1.76 2.65-1.17 5-2.85 2.35-1.68 4.31-3.81l31.98 24.33c-1.4 2.51-2.18 5.32-2.28 8.2-0.09 2.87 0.5 5.73 1.73 8.33 1.22 2.6 3.05 4.87 5.33 6.62 2.28 1.75 4.95 2.93 7.78 3.45q0.4 0.08 0.82 0.13 0.41 0.06 0.82 0.1 0.42 0.04 0.83 0.05 0.41 0.02 0.83 0.02c3.3 0 6.54-0.91 9.36-2.62 2.82-1.71 5.12-4.16 6.65-7.09 1.53-2.92 2.23-6.21 2.03-9.5-0.2-3.3-1.3-6.47-3.17-9.19zm-33.66-52.19q0.21-1.11 0.77-2.08 0.57-0.97 1.44-1.7 0.86-0.72 1.92-1.11 1.06-0.38 2.19-0.39c2.71 0 5.14 1.69 6.07 4.24 0.92 2.55 0.16 5.41-1.93 7.14-2.08 1.74-5.03 1.99-7.37 0.63-2.34-1.37-3.58-4.06-3.09-6.73zm-20.21-56.97c0.28-1.47 0.8-2.89 1.56-4.18 0.75-1.3 1.73-2.45 2.88-3.41 1.15-0.96 2.46-1.72 3.87-2.23 1.41-0.51 2.89-0.77 4.39-0.78q0.3 0 0.6 0.01 0.29 0.02 0.59 0.04 0.29 0.03 0.59 0.07 0.29 0.04 0.58 0.1c5.15 0.94 9.22 4.89 10.32 10 1.1 5.12-0.99 10.39-5.3 13.37-4.3 2.97-9.97 3.06-14.37 0.22-4.39-2.84-6.65-8.05-5.71-13.21zm-44.36 9.77q0.2-1.11 0.77-2.09 0.57-0.97 1.44-1.7 0.87-0.72 1.93-1.1 1.06-0.39 2.19-0.39 0.14 0 0.29 0 0.15 0.01 0.29 0.02 0.15 0.02 0.29 0.04 0.15 0.02 0.29 0.04c2.56 0.47 4.59 2.44 5.14 4.99 0.54 2.54-0.5 5.17-2.64 6.64-2.15 1.48-4.97 1.53-7.15 0.11-2.19-1.41-3.31-4-2.84-6.56zm-53.74 82.27c-0.91 4.94-4.58 8.9-9.43 10.17-4.85 1.28-10-0.37-13.22-4.22-3.21-3.85-3.91-9.21-1.79-13.75 2.12-4.55 6.67-7.46 11.69-7.47q0.29 0 0.59 0.01 0.3 0.02 0.59 0.04 0.3 0.03 0.59 0.07 0.3 0.04 0.59 0.1c1.67 0.3 3.26 0.94 4.69 1.86 1.42 0.92 2.65 2.12 3.62 3.52 0.96 1.39 1.64 2.97 2 4.63 0.36 1.66 0.38 3.37 0.08 5.04zm6.6-65.69c-3.17-0.58-6.01-2.33-7.97-4.9-1.95-2.57-2.87-5.77-2.58-8.98 0.29-3.22 1.76-6.21 4.14-8.39 2.38-2.18 5.49-3.39 8.72-3.39q0.29 0 0.59 0.01 0.3 0.01 0.59 0.04 0.3 0.03 0.59 0.07 0.29 0.04 0.59 0.09c3.4 0.58 6.44 2.51 8.42 5.34 1.98 2.83 2.74 6.34 2.12 9.75-0.62 3.4-2.58 6.41-5.44 8.35-2.86 1.95-6.38 2.67-9.77 2.01zm33.62 81.54c-0.47 2.56-2.44 4.59-4.99 5.13-2.54 0.55-5.17-0.49-6.65-2.63-1.48-2.15-1.52-4.97-0.11-7.16 1.42-2.19 4.01-3.31 6.57-2.84q1.26 0.24 2.34 0.93 1.07 0.7 1.8 1.75 0.73 1.06 1 2.31 0.26 1.25 0.04 2.51zm27.34 39.03c-0.95 5.15-4.9 9.23-10.02 10.33-5.12 1.1-10.4-1-13.37-5.31-2.98-4.31-3.06-9.99-0.21-14.38 2.85-4.4 8.06-6.65 13.21-5.7 1.68 0.3 3.28 0.92 4.71 1.84 1.43 0.92 2.67 2.12 3.63 3.52 0.97 1.4 1.65 2.98 2 4.65 0.35 1.66 0.37 3.38 0.05 5.05zm-2.92-57.11c-9.03-1.65-16.18-8.59-18.11-17.57-1.93-8.98 1.75-18.24 9.31-23.46 7.56-5.22 17.52-5.37 25.23-0.38 7.71 4.99 11.66 14.13 10.01 23.17-0.55 2.93-1.66 5.73-3.28 8.23-1.62 2.5-3.72 4.66-6.17 6.36-2.45 1.69-5.22 2.88-8.13 3.51-2.91 0.63-5.92 0.68-8.86 0.14zm85.15 31.96c-1.12 6.07-6.36 10.51-12.53 10.6-6.17 0.09-11.54-4.19-12.84-10.22-1.29-6.03 1.86-12.14 7.52-14.59 5.66-2.44 12.27-0.55 15.77 4.53q0.73 1.05 1.23 2.22 0.51 1.17 0.78 2.41 0.26 1.25 0.28 2.52 0.02 1.28-0.21 2.53z"/>
</svg>
