<svg version="1.2" xmlns="http://www.w3.org/2000/svg" viewBox="0 0 100 100" width="100" height="100">
	<style>
		.s0 { fill: #000000 } 
	</style>
	<g>
		<path class="s0" d="m90.47 40.91q-0.37 0-0.72-0.12-0.34-0.12-0.64-0.34-0.29-0.23-0.49-0.53-0.21-0.31-0.31-0.66-0.32-1.14-0.71-2.25-0.4-1.12-0.85-2.21-0.46-1.09-0.98-2.15-0.52-1.06-1.11-2.09-0.18-0.33-0.26-0.7-0.06-0.37-0.01-0.74 0.05-0.37 0.22-0.71 0.17-0.34 0.44-0.6 0.59-0.6 0.91-1.38 0.32-0.78 0.33-1.62-0.01-0.84-0.33-1.62-0.32-0.78-0.91-1.38l-6.84-6.81q-0.6-0.59-1.38-0.91-0.78-0.32-1.62-0.33-0.84 0.01-1.62 0.33-0.78 0.32-1.38 0.91l-0.17 0.17q-0.26 0.26-0.59 0.42-0.33 0.16-0.69 0.22-0.36 0.05-0.72-0.02-0.36-0.07-0.68-0.25-1.02-0.57-2.06-1.08-1.05-0.5-2.13-0.95-1.08-0.44-2.18-0.82-1.1-0.38-2.22-0.69-0.36-0.1-0.67-0.3-0.31-0.21-0.54-0.51-0.23-0.29-0.35-0.64-0.12-0.36-0.12-0.73v-0.29q0-0.85-0.32-1.63-0.33-0.78-0.93-1.38-0.6-0.6-1.38-0.93-0.78-0.32-1.63-0.32h-9.67q-0.85 0-1.63 0.33-0.78 0.32-1.38 0.92-0.59 0.6-0.92 1.38-0.32 0.78-0.32 1.63v0.6q0 0.37-0.12 0.71-0.12 0.35-0.34 0.64-0.22 0.29-0.52 0.5-0.3 0.21-0.65 0.31-1.08 0.32-2.14 0.7-1.06 0.38-2.1 0.82-1.04 0.44-2.05 0.94-1.01 0.49-1.99 1.05-0.32 0.18-0.69 0.26-0.36 0.07-0.73 0.02-0.37-0.05-0.7-0.21-0.33-0.16-0.6-0.42l-0.5-0.5q-0.6-0.59-1.38-0.91-0.78-0.32-1.62-0.32-0.84 0-1.62 0.32-0.78 0.32-1.38 0.91l-6.78 6.84q-0.59 0.6-0.91 1.38-0.32 0.78-0.33 1.62 0.01 0.84 0.33 1.62 0.32 0.78 0.91 1.38l0.63 0.63q0.26 0.26 0.43 0.59 0.16 0.34 0.21 0.7 0.05 0.37-0.02 0.73-0.07 0.37-0.25 0.69-0.53 0.96-1 1.96-0.47 0.99-0.89 2.01-0.42 1.01-0.78 2.05-0.36 1.04-0.66 2.1-0.1 0.36-0.3 0.66-0.21 0.31-0.5 0.53-0.29 0.23-0.64 0.35-0.35 0.12-0.72 0.12h-0.98q-0.85 0-1.63 0.32-0.78 0.33-1.38 0.92-0.6 0.6-0.92 1.38-0.33 0.78-0.33 1.63v9.68q0 0.85 0.33 1.63 0.32 0.78 0.92 1.38 0.6 0.59 1.38 0.92 0.78 0.32 1.63 0.32h0.93q0.37 0 0.72 0.12 0.35 0.12 0.64 0.35 0.3 0.22 0.5 0.53 0.21 0.3 0.31 0.66 0.31 1.06 0.67 2.1 0.36 1.03 0.79 2.05 0.42 1.02 0.9 2.01 0.48 0.99 1.01 1.95 0.18 0.32 0.25 0.68 0.07 0.36 0.03 0.73-0.05 0.36-0.22 0.69-0.16 0.33-0.42 0.59l-0.64 0.64q-0.59 0.6-0.91 1.38-0.32 0.78-0.33 1.62 0.01 0.84 0.33 1.62 0.32 0.78 0.91 1.38l6.84 6.84q0.6 0.59 1.38 0.91 0.78 0.32 1.62 0.32 0.84 0 1.62-0.32 0.78-0.32 1.38-0.91l0.5-0.51q0.27-0.24 0.59-0.4 0.33-0.15 0.69-0.19 0.35-0.05 0.71 0.02 0.35 0.07 0.67 0.24 0.98 0.56 1.98 1.05 1.01 0.5 2.04 0.94 1.03 0.44 2.09 0.82 1.05 0.38 2.13 0.7 0.35 0.1 0.65 0.31 0.3 0.21 0.52 0.5 0.22 0.29 0.34 0.64 0.12 0.34 0.12 0.71v0.61q0 0.85 0.32 1.63 0.33 0.78 0.92 1.38 0.6 0.6 1.38 0.92 0.78 0.33 1.63 0.33h9.67q0.85 0 1.63-0.32 0.78-0.33 1.38-0.93 0.6-0.6 0.93-1.38 0.32-0.78 0.32-1.63v-0.34q0.01-0.37 0.14-0.72 0.13-0.35 0.36-0.64 0.23-0.28 0.55-0.48 0.31-0.2 0.67-0.29 1.12-0.3 2.21-0.67 1.1-0.37 2.17-0.81 1.08-0.43 2.12-0.93 1.05-0.49 2.06-1.05 0.32-0.18 0.68-0.25 0.36-0.07 0.73-0.01 0.36 0.05 0.69 0.21 0.33 0.17 0.59 0.43l0.17 0.17q0.6 0.59 1.38 0.91 0.78 0.32 1.62 0.33 0.84-0.01 1.62-0.33 0.78-0.32 1.38-0.91l6.84-6.84q0.6-0.6 0.93-1.39 0.33-0.79 0.33-1.64 0-0.85-0.33-1.64-0.33-0.79-0.93-1.39-0.26-0.26-0.42-0.6-0.17-0.33-0.21-0.7-0.05-0.37 0.02-0.73 0.07-0.37 0.26-0.69 0.58-1.03 1.1-2.09 0.53-1.06 0.98-2.15 0.46-1.08 0.85-2.2 0.39-1.11 0.71-2.25 0.1-0.35 0.31-0.66 0.21-0.3 0.5-0.53 0.29-0.22 0.64-0.34 0.35-0.12 0.72-0.12 0.85 0 1.63-0.32 0.78-0.33 1.38-0.92 0.6-0.6 0.92-1.38 0.33-0.78 0.33-1.63v-9.72q0-0.85-0.33-1.63-0.33-0.78-0.93-1.38-0.6-0.6-1.39-0.92-0.78-0.32-1.63-0.32zm2.26 13.93q0 0.45-0.17 0.86-0.18 0.41-0.5 0.73-0.31 0.32-0.73 0.49-0.41 0.17-0.86 0.17-0.69 0.01-1.35 0.23-0.66 0.22-1.21 0.64-0.56 0.42-0.95 1-0.39 0.57-0.58 1.24-0.31 1.08-0.68 2.13-0.37 1.06-0.8 2.09-0.44 1.04-0.93 2.04-0.5 1.01-1.05 1.98-0.35 0.61-0.48 1.31-0.13 0.69-0.04 1.39 0.1 0.7 0.41 1.33 0.32 0.63 0.82 1.13 0.32 0.32 0.49 0.73 0.17 0.42 0.17 0.86 0 0.45-0.17 0.87-0.17 0.41-0.49 0.73l-6.84 6.84q-0.32 0.32-0.73 0.49-0.42 0.17-0.87 0.17-0.44 0-0.86-0.17-0.41-0.17-0.73-0.49l-0.17-0.17q-0.49-0.49-1.11-0.8-0.62-0.31-1.3-0.41-0.69-0.09-1.37 0.03-0.68 0.13-1.28 0.47-0.96 0.52-1.96 0.99-0.99 0.46-2.01 0.87-1.01 0.41-2.05 0.76-1.04 0.34-2.1 0.63-0.68 0.18-1.26 0.57-0.59 0.39-1.01 0.94-0.43 0.56-0.66 1.22-0.23 0.67-0.23 1.37v0.34q0 0.45-0.17 0.86-0.17 0.42-0.49 0.74-0.32 0.32-0.74 0.49-0.41 0.17-0.86 0.17h-9.67q-0.45 0-0.86-0.17-0.41-0.18-0.73-0.5-0.32-0.31-0.49-0.73-0.17-0.41-0.17-0.86v-0.61q0-0.69-0.22-1.35-0.22-0.65-0.63-1.2-0.42-0.56-0.99-0.95-0.57-0.39-1.23-0.58-1.02-0.3-2.03-0.65-1-0.36-1.98-0.77-0.99-0.41-1.94-0.88-0.96-0.47-1.89-0.99-0.24-0.14-0.5-0.25-0.26-0.1-0.53-0.17-0.27-0.08-0.54-0.11-0.28-0.04-0.56-0.04-0.42 0-0.83 0.08-0.41 0.08-0.79 0.24-0.39 0.16-0.74 0.39-0.34 0.24-0.64 0.53l-0.5 0.5q-0.32 0.31-0.73 0.48-0.42 0.17-0.86 0.17-0.45 0-0.87-0.17-0.41-0.17-0.73-0.48l-6.84-6.84q-0.32-0.32-0.49-0.73-0.17-0.42-0.17-0.87 0-0.44 0.17-0.86 0.17-0.41 0.49-0.73l0.66-0.6q0.49-0.49 0.8-1.11 0.31-0.62 0.41-1.31 0.09-0.68-0.03-1.36-0.13-0.68-0.47-1.29-0.5-0.91-0.95-1.85-0.45-0.94-0.85-1.91-0.39-0.96-0.73-1.94-0.34-0.99-0.63-1.99-0.19-0.67-0.58-1.25-0.39-0.57-0.94-0.99-0.56-0.42-1.22-0.65-0.65-0.22-1.35-0.23h-0.93q-0.45 0-0.86-0.17-0.42-0.17-0.73-0.49-0.32-0.32-0.5-0.73-0.17-0.41-0.17-0.86v-9.71q0-0.45 0.17-0.86 0.18-0.41 0.5-0.73 0.31-0.32 0.73-0.49 0.41-0.17 0.86-0.17h0.93q0.7-0.01 1.35-0.23 0.66-0.23 1.22-0.65 0.55-0.42 0.94-0.99 0.39-0.58 0.58-1.25 0.29-1 0.63-1.99 0.34-0.98 0.73-1.95 0.4-0.96 0.84-1.9 0.45-0.94 0.95-1.86 0.34-0.61 0.48-1.29 0.13-0.68 0.03-1.37-0.09-0.69-0.4-1.32-0.32-0.62-0.81-1.11l-0.63-0.63q-0.32-0.32-0.49-0.73-0.17-0.42-0.17-0.86 0-0.45 0.17-0.87 0.17-0.41 0.49-0.73l6.84-6.84q0.32-0.31 0.73-0.48 0.42-0.17 0.87-0.17 0.44 0 0.86 0.17 0.41 0.17 0.73 0.48l0.49 0.49q0.5 0.49 1.13 0.8 0.63 0.31 1.32 0.4 0.7 0.09 1.38-0.04 0.69-0.13 1.3-0.48 0.93-0.53 1.88-1 0.96-0.48 1.94-0.9 0.98-0.41 1.98-0.78 1.01-0.36 2.03-0.66 0.66-0.19 1.23-0.58 0.57-0.39 0.98-0.94 0.41-0.55 0.63-1.21 0.22-0.65 0.22-1.34v-0.6q0-0.45 0.17-0.86 0.17-0.42 0.49-0.73 0.32-0.32 0.73-0.5 0.41-0.17 0.86-0.17h9.67q0.45 0 0.86 0.17 0.42 0.17 0.74 0.49 0.32 0.32 0.49 0.74 0.17 0.41 0.17 0.86v0.32q-0.01 0.71 0.21 1.39 0.23 0.67 0.66 1.24 0.43 0.57 1.01 0.97 0.59 0.39 1.28 0.58 1.06 0.29 2.1 0.64 1.04 0.35 2.06 0.76 1.02 0.41 2.01 0.88 0.99 0.47 1.95 1 0.61 0.33 1.29 0.46 0.68 0.12 1.36 0.03 0.69-0.1 1.31-0.41 0.62-0.3 1.11-0.79l0.16-0.16q0.32-0.32 0.73-0.49 0.42-0.17 0.86-0.17 0.45 0 0.87 0.17 0.41 0.17 0.73 0.49l6.84 6.84q0.32 0.32 0.5 0.74 0.17 0.42 0.17 0.87 0 0.45-0.17 0.87-0.18 0.42-0.5 0.74-0.49 0.5-0.8 1.12-0.31 0.63-0.4 1.33-0.09 0.69 0.04 1.38 0.13 0.68 0.48 1.29 0.56 0.97 1.05 1.98 0.5 1.01 0.93 2.04 0.43 1.03 0.8 2.09 0.37 1.06 0.68 2.14 0.19 0.67 0.58 1.24 0.39 0.58 0.95 1 0.55 0.42 1.21 0.64 0.66 0.22 1.35 0.23 0.45 0 0.86 0.17 0.42 0.17 0.73 0.49 0.32 0.32 0.5 0.73 0.17 0.41 0.17 0.86z"/>
		<path class="s0" d="m62.65 18.8h-0.1q-1.44-0.56-2.93-0.99-1.49-0.42-3.01-0.71-1.52-0.28-3.06-0.43-1.54-0.14-3.09-0.14h-0.46-0.07q-1.48 0.02-2.95 0.17-1.47 0.16-2.93 0.44-1.45 0.28-2.87 0.69-1.42 0.41-2.8 0.95h-0.1c-5.56 2.16-10.44 5.77-14.13 10.45-3.7 4.68-6.08 10.26-6.89 16.16-0.82 5.91-0.04 11.93 2.25 17.43 2.29 5.51 6.01 10.3 10.77 13.89l0.1 0.08c2.87 2.15 6.08 3.83 9.49 4.97 3.4 1.13 6.97 1.71 10.56 1.71 3.6 0 7.17-0.58 10.57-1.71 3.41-1.14 6.62-2.82 9.49-4.97l0.1-0.08c4.76-3.59 8.48-8.38 10.76-13.89 2.29-5.5 3.07-11.52 2.25-17.42-0.81-5.91-3.19-11.49-6.89-16.17-3.69-4.68-8.57-8.29-14.12-10.45zm8.25 55.14v-8.43q0-0.85-0.32-1.63-0.33-0.78-0.93-1.38-0.6-0.6-1.38-0.93-0.78-0.32-1.63-0.32h-1.16q-0.45 0-0.86-0.17-0.42-0.17-0.73-0.49-0.32-0.32-0.5-0.73-0.17-0.41-0.17-0.86v-5c2.01-0.5 3.33-2.43 3.08-4.49-0.26-2.06-2-3.61-4.08-3.61-2.08 0-3.82 1.55-4.08 3.61-0.25 2.06 1.07 3.99 3.08 4.49v5q0 0.85 0.33 1.63 0.32 0.78 0.92 1.38 0.6 0.59 1.38 0.92 0.78 0.32 1.63 0.32h1.16q0.45 0 0.86 0.17 0.42 0.17 0.74 0.49 0.32 0.32 0.49 0.74 0.17 0.41 0.17 0.86v10c-2.66 1.93-5.61 3.43-8.74 4.45-3.13 1.01-6.4 1.53-9.69 1.53-3.3 0-6.57-0.52-9.7-1.53-3.13-1.02-6.08-2.52-8.74-4.45v-10q0-0.45 0.17-0.86 0.17-0.42 0.49-0.73 0.32-0.32 0.73-0.5 0.41-0.17 0.86-0.17h1.17q0.85 0 1.63-0.32 0.78-0.33 1.38-0.92 0.6-0.6 0.92-1.38 0.33-0.78 0.33-1.63v-5c2.01-0.5 3.33-2.43 3.08-4.49-0.26-2.06-2-3.61-4.08-3.61-2.08 0-3.82 1.55-4.08 3.61-0.25 2.06 1.07 3.99 3.08 4.49v5q0 0.45-0.17 0.86-0.18 0.41-0.5 0.73-0.31 0.32-0.73 0.49-0.41 0.17-0.86 0.17h-1.17q-0.85 0-1.64 0.32-0.78 0.32-1.39 0.92-0.6 0.6-0.92 1.39-0.33 0.78-0.33 1.63v8.43c-4.06-3.45-7.17-7.88-9.04-12.87-1.88-4.98-2.46-10.36-1.69-15.63 0.77-5.27 2.86-10.26 6.09-14.5 3.23-4.24 7.48-7.59 12.35-9.74v10.72c-2.01 0.5-3.33 2.43-3.08 4.49 0.26 2.06 2 3.61 4.08 3.61 2.08 0 3.82-1.55 4.08-3.61 0.25-2.06-1.07-3.99-3.08-4.49v-11.53q1.12-0.41 2.26-0.73 1.15-0.32 2.31-0.56 1.17-0.23 2.35-0.37 1.18-0.15 2.37-0.2v47.93c-2.01 0.5-3.33 2.43-3.08 4.49 0.26 2.06 2 3.61 4.08 3.61 2.08 0 3.82-1.55 4.08-3.61 0.25-2.06-1.07-3.99-3.08-4.49v-47.95q1.31 0.02 2.61 0.15 1.29 0.13 2.58 0.36 1.28 0.24 2.54 0.58 1.26 0.34 2.49 0.79v11.53c-2.01 0.5-3.33 2.43-3.08 4.49 0.26 2.06 2 3.61 4.08 3.61 2.08 0 3.82-1.55 4.08-3.61 0.25-2.06-1.07-3.99-3.08-4.49v-10.72c4.87 2.16 9.11 5.51 12.33 9.75 3.22 4.24 5.31 9.23 6.08 14.5 0.76 5.27 0.18 10.64-1.69 15.63-1.88 4.98-4.99 9.41-9.04 12.86zm-20.9-5.62c0.85 0 1.62 0.51 1.95 1.3 0.33 0.79 0.15 1.7-0.46 2.3-0.6 0.61-1.51 0.79-2.3 0.46-0.79-0.33-1.3-1.1-1.3-1.95q0-0.42 0.16-0.81 0.17-0.38 0.46-0.68 0.3-0.29 0.68-0.46 0.39-0.16 0.81-0.16zm-11.29-34.54c0.86 0 1.63 0.51 1.97 1.3 0.33 0.79 0.15 1.71-0.46 2.32-0.6 0.6-1.52 0.79-2.31 0.46-0.79-0.33-1.31-1.1-1.31-1.96q0-0.42 0.16-0.81 0.16-0.39 0.46-0.69 0.29-0.29 0.68-0.46 0.39-0.16 0.81-0.16zm23.51 0.02c0.86 0 1.63 0.51 1.97 1.3 0.33 0.79 0.15 1.71-0.46 2.32-0.6 0.6-1.52 0.79-2.31 0.46-0.79-0.33-1.31-1.1-1.31-1.96q0-0.42 0.15-0.82 0.16-0.39 0.46-0.69 0.3-0.3 0.69-0.46 0.39-0.17 0.81-0.17zm0 18.31c-0.85 0-1.62-0.51-1.95-1.3-0.33-0.79-0.15-1.7 0.46-2.3 0.6-0.61 1.51-0.79 2.3-0.46 0.79 0.33 1.3 1.1 1.3 1.95q0 0.42-0.16 0.81-0.17 0.38-0.46 0.68-0.3 0.29-0.68 0.46-0.39 0.16-0.81 0.16zm-23.51 0c-0.85 0-1.62-0.51-1.95-1.3-0.33-0.79-0.15-1.7 0.46-2.3 0.6-0.61 1.51-0.79 2.3-0.46 0.79 0.33 1.3 1.1 1.3 1.95q0 0.42-0.16 0.81-0.16 0.38-0.46 0.68-0.3 0.3-0.68 0.46-0.39 0.16-0.81 0.16z"/>
	</g>
</svg>
